<svg height="512" viewBox="0 0 512 512" width="512" xmlns="http://www.w3.org/2000/svg" xmlns:xlink="http://www.w3.org/1999/xlink"><linearGradient id="New_Gradient_Swatch_7" gradientUnits="userSpaceOnUse" x1="2.821" x2="442.405" y1="475.792" y2="36.208"><stop offset=".015" stop-color="#9c83c9"/><stop offset="1" stop-color="#c3b5df"/></linearGradient><linearGradient id="New_Gradient_Swatch_13" gradientUnits="userSpaceOnUse" x1="206.878" x2="305.122" y1="105.367" y2="7.122"><stop offset=".015" stop-color="#8ae4c8"/><stop offset="1" stop-color="#a7ebd6"/></linearGradient><linearGradient id="New_Gradient_Swatch_15" gradientUnits="userSpaceOnUse" x1="162.556" x2="349.444" y1="461.444" y2="274.556"><stop offset=".015" stop-color="#ebe6f4"/><stop offset="1" stop-color="#f5f3fa"/></linearGradient><linearGradient id="New_Gradient_Swatch_10" gradientUnits="userSpaceOnUse" x1="211.396" x2="300.604" y1="253.321" y2="164.113"><stop offset=".015" stop-color="#fbde7d"/><stop offset="1" stop-color="#fdeebe"/></linearGradient><linearGradient id="New_Gradient_Swatch_5" gradientUnits="userSpaceOnUse" x1="-79.728" x2="194.757" y1="393.243" y2="118.757"><stop offset=".015" stop-color="#fb9d8d"/><stop offset="1" stop-color="#fdcec6"/></linearGradient><g id="_21-book" data-name="21-book"><g id="gradient"><path d="m392 4h-352a12 12 0 0 0 -12 12v480a12 12 0 0 0 12 12h352a44.049 44.049 0 0 0 44-44v-416a44.049 44.049 0 0 0 -44-44z" fill="url(#New_Gradient_Swatch_7)"/><path d="m302 4h-92v101.777a6.252 6.252 0 0 0 1.956 4.659 6 6 0 0 0 7.131.709l36.913-22.145 36.913 22.148a6.009 6.009 0 0 0 7.565-1.148 6.166 6.166 0 0 0 1.522-4.16z" fill="url(#New_Gradient_Swatch_13)"/><rect fill="url(#New_Gradient_Swatch_15)" height="168" rx="36" width="248" x="132" y="284"/><g fill="#c3b5df"><path d="m320 356h-128a12 12 0 0 1 0-24h128a12 12 0 0 1 0 24z"/><path d="m224 404h-32a12 12 0 0 1 0-24h32a12 12 0 0 1 0 24z"/><path d="m320 404h-48a12 12 0 0 1 0-24h48a12 12 0 0 1 0 24z"/></g><path d="m319.129 184.488a12 12 0 0 0 -9.687-8.167l-29.492-4.285-13.189-26.724a12 12 0 0 0 -21.522 0l-13.189 26.724-29.492 4.285a12 12 0 0 0 -6.65 20.468l21.34 20.8-5.038 29.373a12 12 0 0 0 17.412 12.649l26.378-13.865 26.378 13.867a12 12 0 0 0 17.412-12.649l-5.038-29.373 21.34-20.8a12 12 0 0 0 3.037-12.303z" fill="url(#New_Gradient_Swatch_10)"/><path d="m80 4h-40a12 12 0 0 0 -12 12v480a12 12 0 0 0 12 12h40z" fill="url(#New_Gradient_Swatch_5)"/></g></g></svg>