<svg id="Capa_1" enable-background="new 0 0 512 512" height="512" viewBox="0 0 512 512" width="512" xmlns="http://www.w3.org/2000/svg"><g><g><path d="m480.465 51.45v408.7c0 28.6-23.19 51.85-51.8 51.85h-152.53l-64.447-247.809 64.447-264.191h152.53c28.61 0 51.8 22.85 51.8 51.45z" fill="#e5a5ae"/><g><path d="m319.385 0v512h-159.34l-44.148-271.009 44.148-240.991z" fill="#ecbfc6"/><path d="m71.811 0h88.174v512h-88.174z" fill="#2d2755"/></g></g><g><path d="m395.505 336.52-76.12 76.13-31.71-91.267 31.71-60.993c22.6-19 57.37-15.8 76.24 6.84 16.51 19.82 16.48 49.54-.12 69.29z" fill="#ff347f"/><path d="m319.385 260.39v152.26l-.01.01-76.12-76.14c-16.59-19.75-16.62-49.47-.11-69.29 18.87-22.65 53.64-25.83 76.24-6.84z" fill="#ff81ac"/></g><g><path d="m385.604 88.82v63.69h-66.219l-21.228-31.845 21.228-31.845z" fill="#eae4f0"/><path d="m255.965 88.82h63.42v63.69h-63.42z" fill="#fbf4f4"/></g><g><g><path d="m33.162 96.126h78.919v30h-78.919z" fill="#453d82"/></g><g><path d="m31.535 168.633h78.919v30h-78.919z" fill="#453d82"/></g><g><path d="m31.535 240.991h78.919v30h-78.919z" fill="#453d82"/></g><g><path d="m31.535 313.647h78.919v30h-78.919z" fill="#453d82"/></g><g><path d="m31.535 386.154h78.919v30h-78.919z" fill="#453d82"/></g></g></g></svg>